<mxfile host="app.diagrams.net" agent="Mozilla/5.0 (X11; Linux x86_64) AppleWebKit/537.36 (KHTML, like Gecko) Chrome/138.0.0.0 Safari/537.36" version="27.2.0">
  <diagram name="Page-1" id="2ca16b54-16f6-2749-3443-fa8db7711227">
    <mxGraphModel dx="2503" dy="626" grid="1" gridSize="10" guides="1" tooltips="1" connect="1" arrows="1" fold="1" page="1" pageScale="1" pageWidth="1100" pageHeight="850" background="none" math="0" shadow="0">
      <root>
        <mxCell id="0" />
        <mxCell id="1" parent="0" />
        <mxCell id="Hif56-G5Tu1iFRGsb4T8-3" value="User Table" style="shape=cylinder;whiteSpace=wrap;html=1;boundedLbl=1;backgroundOutline=1;" vertex="1" parent="1">
          <mxGeometry x="180" y="370" width="60" height="80" as="geometry" />
        </mxCell>
        <mxCell id="Hif56-G5Tu1iFRGsb4T8-4" value="Guest" style="html=1;dashed=0;whiteSpace=wrap;" vertex="1" parent="1">
          <mxGeometry y="530" width="100" height="50" as="geometry" />
        </mxCell>
        <mxCell id="Hif56-G5Tu1iFRGsb4T8-5" value="User Authentication process" style="html=1;dashed=0;whiteSpace=wrap;" vertex="1" parent="1">
          <mxGeometry x="170" y="530" width="100" height="50" as="geometry" />
        </mxCell>
        <mxCell id="Hif56-G5Tu1iFRGsb4T8-6" value="Property management process" style="html=1;dashed=0;whiteSpace=wrap;" vertex="1" parent="1">
          <mxGeometry x="340" y="530" width="100" height="50" as="geometry" />
        </mxCell>
        <mxCell id="Hif56-G5Tu1iFRGsb4T8-7" value="Booking process" style="html=1;dashed=0;whiteSpace=wrap;" vertex="1" parent="1">
          <mxGeometry x="520" y="530" width="100" height="50" as="geometry" />
        </mxCell>
        <mxCell id="Hif56-G5Tu1iFRGsb4T8-8" value="Payment process" style="html=1;dashed=0;whiteSpace=wrap;" vertex="1" parent="1">
          <mxGeometry x="700" y="530" width="100" height="50" as="geometry" />
        </mxCell>
        <mxCell id="Hif56-G5Tu1iFRGsb4T8-9" value="Property Table" style="shape=cylinder;whiteSpace=wrap;html=1;boundedLbl=1;backgroundOutline=1;" vertex="1" parent="1">
          <mxGeometry x="340" y="370" width="60" height="80" as="geometry" />
        </mxCell>
        <mxCell id="Hif56-G5Tu1iFRGsb4T8-10" value="Booking Table" style="shape=cylinder;whiteSpace=wrap;html=1;boundedLbl=1;backgroundOutline=1;" vertex="1" parent="1">
          <mxGeometry x="540" y="370" width="60" height="80" as="geometry" />
        </mxCell>
        <mxCell id="Hif56-G5Tu1iFRGsb4T8-11" value="Payment Table" style="shape=cylinder;whiteSpace=wrap;html=1;boundedLbl=1;backgroundOutline=1;" vertex="1" parent="1">
          <mxGeometry x="710" y="370" width="60" height="80" as="geometry" />
        </mxCell>
        <mxCell id="Hif56-G5Tu1iFRGsb4T8-12" value="Review process" style="html=1;dashed=0;whiteSpace=wrap;" vertex="1" parent="1">
          <mxGeometry x="880" y="530" width="100" height="50" as="geometry" />
        </mxCell>
        <mxCell id="Hif56-G5Tu1iFRGsb4T8-13" value="Review Table" style="shape=cylinder;whiteSpace=wrap;html=1;boundedLbl=1;backgroundOutline=1;" vertex="1" parent="1">
          <mxGeometry x="870" y="380" width="60" height="80" as="geometry" />
        </mxCell>
        <mxCell id="Hif56-G5Tu1iFRGsb4T8-14" value="" style="endArrow=classic;html=1;rounded=0;entryX=0;entryY=0.5;entryDx=0;entryDy=0;exitX=1;exitY=0.5;exitDx=0;exitDy=0;" edge="1" parent="1" source="Hif56-G5Tu1iFRGsb4T8-4" target="Hif56-G5Tu1iFRGsb4T8-5">
          <mxGeometry width="50" height="50" relative="1" as="geometry">
            <mxPoint x="110" y="570" as="sourcePoint" />
            <mxPoint x="160" y="520" as="targetPoint" />
          </mxGeometry>
        </mxCell>
        <mxCell id="Hif56-G5Tu1iFRGsb4T8-15" value="" style="endArrow=classic;html=1;rounded=0;exitX=1;exitY=0.5;exitDx=0;exitDy=0;entryX=0;entryY=0.5;entryDx=0;entryDy=0;" edge="1" parent="1" source="Hif56-G5Tu1iFRGsb4T8-5" target="Hif56-G5Tu1iFRGsb4T8-6">
          <mxGeometry width="50" height="50" relative="1" as="geometry">
            <mxPoint x="270" y="550" as="sourcePoint" />
            <mxPoint x="330" y="550" as="targetPoint" />
          </mxGeometry>
        </mxCell>
        <mxCell id="Hif56-G5Tu1iFRGsb4T8-16" value="" style="endArrow=classic;html=1;rounded=0;exitX=1;exitY=0.5;exitDx=0;exitDy=0;entryX=0;entryY=0.5;entryDx=0;entryDy=0;" edge="1" parent="1" source="Hif56-G5Tu1iFRGsb4T8-6" target="Hif56-G5Tu1iFRGsb4T8-7">
          <mxGeometry width="50" height="50" relative="1" as="geometry">
            <mxPoint x="480" y="550" as="sourcePoint" />
            <mxPoint x="530" y="550" as="targetPoint" />
            <Array as="points" />
          </mxGeometry>
        </mxCell>
        <mxCell id="Hif56-G5Tu1iFRGsb4T8-17" value="" style="endArrow=classic;html=1;rounded=0;exitX=1;exitY=0.5;exitDx=0;exitDy=0;entryX=0;entryY=0.5;entryDx=0;entryDy=0;" edge="1" parent="1" source="Hif56-G5Tu1iFRGsb4T8-7" target="Hif56-G5Tu1iFRGsb4T8-8">
          <mxGeometry width="50" height="50" relative="1" as="geometry">
            <mxPoint x="640" y="560" as="sourcePoint" />
            <mxPoint x="690" y="510" as="targetPoint" />
          </mxGeometry>
        </mxCell>
        <mxCell id="Hif56-G5Tu1iFRGsb4T8-18" value="" style="endArrow=classic;html=1;rounded=0;" edge="1" parent="1">
          <mxGeometry width="50" height="50" relative="1" as="geometry">
            <mxPoint x="800" y="550" as="sourcePoint" />
            <mxPoint x="880" y="550" as="targetPoint" />
          </mxGeometry>
        </mxCell>
        <mxCell id="Hif56-G5Tu1iFRGsb4T8-19" value="" style="endArrow=classic;html=1;rounded=0;entryX=0.15;entryY=0.95;entryDx=0;entryDy=0;entryPerimeter=0;exitX=0.16;exitY=-0.06;exitDx=0;exitDy=0;exitPerimeter=0;" edge="1" parent="1" source="Hif56-G5Tu1iFRGsb4T8-5" target="Hif56-G5Tu1iFRGsb4T8-3">
          <mxGeometry width="50" height="50" relative="1" as="geometry">
            <mxPoint x="190" y="520" as="sourcePoint" />
            <mxPoint x="260" y="480" as="targetPoint" />
          </mxGeometry>
        </mxCell>
        <mxCell id="Hif56-G5Tu1iFRGsb4T8-20" value="" style="endArrow=classic;html=1;rounded=0;entryX=0.58;entryY=-0.04;entryDx=0;entryDy=0;entryPerimeter=0;" edge="1" parent="1" target="Hif56-G5Tu1iFRGsb4T8-5">
          <mxGeometry width="50" height="50" relative="1" as="geometry">
            <mxPoint x="230" y="450" as="sourcePoint" />
            <mxPoint x="230" y="520" as="targetPoint" />
          </mxGeometry>
        </mxCell>
        <mxCell id="Hif56-G5Tu1iFRGsb4T8-21" value="" style="endArrow=classic;html=1;rounded=0;entryX=0.15;entryY=0.95;entryDx=0;entryDy=0;entryPerimeter=0;exitX=0.16;exitY=-0.06;exitDx=0;exitDy=0;exitPerimeter=0;" edge="1" parent="1">
          <mxGeometry width="50" height="50" relative="1" as="geometry">
            <mxPoint x="360" y="531" as="sourcePoint" />
            <mxPoint x="363" y="450" as="targetPoint" />
          </mxGeometry>
        </mxCell>
        <mxCell id="Hif56-G5Tu1iFRGsb4T8-22" value="" style="endArrow=classic;html=1;rounded=0;entryX=0.15;entryY=0.95;entryDx=0;entryDy=0;entryPerimeter=0;exitX=0.16;exitY=-0.06;exitDx=0;exitDy=0;exitPerimeter=0;" edge="1" parent="1">
          <mxGeometry width="50" height="50" relative="1" as="geometry">
            <mxPoint x="540" y="530" as="sourcePoint" />
            <mxPoint x="543" y="449" as="targetPoint" />
          </mxGeometry>
        </mxCell>
        <mxCell id="Hif56-G5Tu1iFRGsb4T8-23" value="" style="endArrow=classic;html=1;rounded=0;entryX=0.15;entryY=0.95;entryDx=0;entryDy=0;entryPerimeter=0;exitX=0.16;exitY=-0.06;exitDx=0;exitDy=0;exitPerimeter=0;" edge="1" parent="1">
          <mxGeometry width="50" height="50" relative="1" as="geometry">
            <mxPoint x="720" y="531" as="sourcePoint" />
            <mxPoint x="723" y="450" as="targetPoint" />
          </mxGeometry>
        </mxCell>
        <mxCell id="Hif56-G5Tu1iFRGsb4T8-24" value="" style="endArrow=classic;html=1;rounded=0;entryX=0.317;entryY=1.038;entryDx=0;entryDy=0;entryPerimeter=0;exitX=0.08;exitY=0;exitDx=0;exitDy=0;exitPerimeter=0;" edge="1" parent="1" source="Hif56-G5Tu1iFRGsb4T8-12" target="Hif56-G5Tu1iFRGsb4T8-13">
          <mxGeometry width="50" height="50" relative="1" as="geometry">
            <mxPoint x="880" y="531" as="sourcePoint" />
            <mxPoint x="883" y="450" as="targetPoint" />
            <Array as="points">
              <mxPoint x="889" y="480" />
            </Array>
          </mxGeometry>
        </mxCell>
        <mxCell id="Hif56-G5Tu1iFRGsb4T8-25" value="" style="endArrow=classic;html=1;rounded=0;entryX=0.58;entryY=-0.04;entryDx=0;entryDy=0;entryPerimeter=0;" edge="1" parent="1">
          <mxGeometry width="50" height="50" relative="1" as="geometry">
            <mxPoint x="391" y="452" as="sourcePoint" />
            <mxPoint x="389" y="530" as="targetPoint" />
          </mxGeometry>
        </mxCell>
        <mxCell id="Hif56-G5Tu1iFRGsb4T8-26" value="" style="endArrow=classic;html=1;rounded=0;entryX=0.58;entryY=-0.04;entryDx=0;entryDy=0;entryPerimeter=0;" edge="1" parent="1">
          <mxGeometry width="50" height="50" relative="1" as="geometry">
            <mxPoint x="582" y="450" as="sourcePoint" />
            <mxPoint x="580" y="528" as="targetPoint" />
          </mxGeometry>
        </mxCell>
        <mxCell id="Hif56-G5Tu1iFRGsb4T8-27" value="" style="endArrow=classic;html=1;rounded=0;entryX=0.58;entryY=-0.04;entryDx=0;entryDy=0;entryPerimeter=0;" edge="1" parent="1">
          <mxGeometry width="50" height="50" relative="1" as="geometry">
            <mxPoint x="762" y="452" as="sourcePoint" />
            <mxPoint x="760" y="530" as="targetPoint" />
            <Array as="points">
              <mxPoint x="762" y="472" />
            </Array>
          </mxGeometry>
        </mxCell>
        <mxCell id="Hif56-G5Tu1iFRGsb4T8-28" value="" style="endArrow=classic;html=1;rounded=0;entryX=0.58;entryY=-0.04;entryDx=0;entryDy=0;entryPerimeter=0;" edge="1" parent="1">
          <mxGeometry width="50" height="50" relative="1" as="geometry">
            <mxPoint x="922" y="452" as="sourcePoint" />
            <mxPoint x="920" y="530" as="targetPoint" />
          </mxGeometry>
        </mxCell>
        <mxCell id="Hif56-G5Tu1iFRGsb4T8-29" value="Host" style="html=1;dashed=0;whiteSpace=wrap;" vertex="1" parent="1">
          <mxGeometry x="-20" y="240" width="100" height="50" as="geometry" />
        </mxCell>
        <mxCell id="Hif56-G5Tu1iFRGsb4T8-46" value="" style="edgeStyle=orthogonalEdgeStyle;rounded=0;orthogonalLoop=1;jettySize=auto;html=1;" edge="1" parent="1" source="Hif56-G5Tu1iFRGsb4T8-30" target="Hif56-G5Tu1iFRGsb4T8-31">
          <mxGeometry relative="1" as="geometry" />
        </mxCell>
        <mxCell id="Hif56-G5Tu1iFRGsb4T8-30" value="User Authentication process" style="html=1;dashed=0;whiteSpace=wrap;" vertex="1" parent="1">
          <mxGeometry x="150" y="240" width="100" height="50" as="geometry" />
        </mxCell>
        <mxCell id="Hif56-G5Tu1iFRGsb4T8-42" value="" style="edgeStyle=orthogonalEdgeStyle;rounded=0;orthogonalLoop=1;jettySize=auto;html=1;" edge="1" parent="1" source="Hif56-G5Tu1iFRGsb4T8-31" target="Hif56-G5Tu1iFRGsb4T8-33">
          <mxGeometry relative="1" as="geometry" />
        </mxCell>
        <mxCell id="Hif56-G5Tu1iFRGsb4T8-31" value="Property management process" style="html=1;dashed=0;whiteSpace=wrap;" vertex="1" parent="1">
          <mxGeometry x="330" y="240" width="100" height="50" as="geometry" />
        </mxCell>
        <mxCell id="Hif56-G5Tu1iFRGsb4T8-33" value="Booking process" style="html=1;dashed=0;whiteSpace=wrap;" vertex="1" parent="1">
          <mxGeometry x="500" y="240" width="100" height="50" as="geometry" />
        </mxCell>
        <mxCell id="Hif56-G5Tu1iFRGsb4T8-34" value="Payment process" style="html=1;dashed=0;whiteSpace=wrap;" vertex="1" parent="1">
          <mxGeometry x="670" y="240" width="100" height="50" as="geometry" />
        </mxCell>
        <mxCell id="Hif56-G5Tu1iFRGsb4T8-35" value="Review process" style="html=1;dashed=0;whiteSpace=wrap;" vertex="1" parent="1">
          <mxGeometry x="840" y="240" width="100" height="50" as="geometry" />
        </mxCell>
        <mxCell id="Hif56-G5Tu1iFRGsb4T8-36" value="" style="endArrow=classic;html=1;rounded=0;" edge="1" parent="1">
          <mxGeometry width="50" height="50" relative="1" as="geometry">
            <mxPoint x="770" y="264.5" as="sourcePoint" />
            <mxPoint x="840" y="265" as="targetPoint" />
          </mxGeometry>
        </mxCell>
        <mxCell id="Hif56-G5Tu1iFRGsb4T8-38" value="" style="endArrow=classic;html=1;rounded=0;exitX=1;exitY=0.5;exitDx=0;exitDy=0;entryX=0;entryY=0.5;entryDx=0;entryDy=0;" edge="1" parent="1" source="Hif56-G5Tu1iFRGsb4T8-33" target="Hif56-G5Tu1iFRGsb4T8-34">
          <mxGeometry width="50" height="50" relative="1" as="geometry">
            <mxPoint x="610" y="265" as="sourcePoint" />
            <mxPoint x="660" y="265" as="targetPoint" />
            <Array as="points">
              <mxPoint x="640" y="265" />
            </Array>
          </mxGeometry>
        </mxCell>
        <mxCell id="Hif56-G5Tu1iFRGsb4T8-41" value="" style="endArrow=classic;html=1;rounded=0;exitX=1;exitY=0.5;exitDx=0;exitDy=0;entryX=0;entryY=0.5;entryDx=0;entryDy=0;" edge="1" parent="1">
          <mxGeometry width="50" height="50" relative="1" as="geometry">
            <mxPoint x="430" y="264.5" as="sourcePoint" />
            <mxPoint x="500" y="264.5" as="targetPoint" />
            <Array as="points">
              <mxPoint x="470" y="264.5" />
            </Array>
          </mxGeometry>
        </mxCell>
        <mxCell id="Hif56-G5Tu1iFRGsb4T8-44" value="" style="endArrow=classic;html=1;rounded=0;entryX=0.44;entryY=1.02;entryDx=0;entryDy=0;entryPerimeter=0;exitX=0.033;exitY=0.063;exitDx=0;exitDy=0;exitPerimeter=0;" edge="1" parent="1" source="Hif56-G5Tu1iFRGsb4T8-11" target="Hif56-G5Tu1iFRGsb4T8-34">
          <mxGeometry width="50" height="50" relative="1" as="geometry">
            <mxPoint x="720" y="370" as="sourcePoint" />
            <mxPoint x="770" y="350" as="targetPoint" />
          </mxGeometry>
        </mxCell>
        <mxCell id="Hif56-G5Tu1iFRGsb4T8-47" value="" style="endArrow=classic;html=1;rounded=0;exitX=1;exitY=0.5;exitDx=0;exitDy=0;entryX=0;entryY=0.5;entryDx=0;entryDy=0;" edge="1" parent="1" source="Hif56-G5Tu1iFRGsb4T8-29" target="Hif56-G5Tu1iFRGsb4T8-30">
          <mxGeometry width="50" height="50" relative="1" as="geometry">
            <mxPoint x="100" y="260" as="sourcePoint" />
            <mxPoint x="170" y="260" as="targetPoint" />
          </mxGeometry>
        </mxCell>
        <mxCell id="Hif56-G5Tu1iFRGsb4T8-48" value="" style="endArrow=classic;html=1;rounded=0;entryX=0.5;entryY=0;entryDx=0;entryDy=0;exitX=0.68;exitY=1.08;exitDx=0;exitDy=0;exitPerimeter=0;" edge="1" parent="1" source="Hif56-G5Tu1iFRGsb4T8-34" target="Hif56-G5Tu1iFRGsb4T8-11">
          <mxGeometry width="50" height="50" relative="1" as="geometry">
            <mxPoint x="742" y="320" as="sourcePoint" />
            <mxPoint x="740" y="398" as="targetPoint" />
            <Array as="points" />
          </mxGeometry>
        </mxCell>
        <mxCell id="Hif56-G5Tu1iFRGsb4T8-49" value="" style="endArrow=classic;html=1;rounded=0;entryX=0.41;entryY=0.94;entryDx=0;entryDy=0;entryPerimeter=0;exitX=0.017;exitY=0.088;exitDx=0;exitDy=0;exitPerimeter=0;" edge="1" parent="1" source="Hif56-G5Tu1iFRGsb4T8-10" target="Hif56-G5Tu1iFRGsb4T8-33">
          <mxGeometry width="50" height="50" relative="1" as="geometry">
            <mxPoint x="530" y="381" as="sourcePoint" />
            <mxPoint x="533" y="300" as="targetPoint" />
          </mxGeometry>
        </mxCell>
        <mxCell id="Hif56-G5Tu1iFRGsb4T8-50" value="" style="endArrow=classic;html=1;rounded=0;entryX=0.617;entryY=-0.012;entryDx=0;entryDy=0;entryPerimeter=0;exitX=0.75;exitY=1;exitDx=0;exitDy=0;" edge="1" parent="1" source="Hif56-G5Tu1iFRGsb4T8-33" target="Hif56-G5Tu1iFRGsb4T8-10">
          <mxGeometry width="50" height="50" relative="1" as="geometry">
            <mxPoint x="562" y="320" as="sourcePoint" />
            <mxPoint x="560" y="398" as="targetPoint" />
          </mxGeometry>
        </mxCell>
        <mxCell id="Hif56-G5Tu1iFRGsb4T8-51" value="" style="endArrow=classic;html=1;rounded=0;entryX=0.25;entryY=1;entryDx=0;entryDy=0;" edge="1" parent="1" target="Hif56-G5Tu1iFRGsb4T8-31">
          <mxGeometry width="50" height="50" relative="1" as="geometry">
            <mxPoint x="355" y="370" as="sourcePoint" />
            <mxPoint x="360" y="320" as="targetPoint" />
          </mxGeometry>
        </mxCell>
        <mxCell id="Hif56-G5Tu1iFRGsb4T8-52" value="" style="endArrow=classic;html=1;rounded=0;exitX=0.5;exitY=1;exitDx=0;exitDy=0;" edge="1" parent="1" source="Hif56-G5Tu1iFRGsb4T8-31">
          <mxGeometry width="50" height="50" relative="1" as="geometry">
            <mxPoint x="382" y="300" as="sourcePoint" />
            <mxPoint x="380" y="370" as="targetPoint" />
          </mxGeometry>
        </mxCell>
        <mxCell id="Hif56-G5Tu1iFRGsb4T8-53" value="" style="endArrow=classic;html=1;rounded=0;entryX=0.5;entryY=1;entryDx=0;entryDy=0;exitX=0.317;exitY=-0.037;exitDx=0;exitDy=0;exitPerimeter=0;" edge="1" parent="1" source="Hif56-G5Tu1iFRGsb4T8-3" target="Hif56-G5Tu1iFRGsb4T8-30">
          <mxGeometry width="50" height="50" relative="1" as="geometry">
            <mxPoint x="200" y="360" as="sourcePoint" />
            <mxPoint x="180" y="300" as="targetPoint" />
            <Array as="points">
              <mxPoint x="200" y="340" />
            </Array>
          </mxGeometry>
        </mxCell>
        <mxCell id="Hif56-G5Tu1iFRGsb4T8-54" value="" style="endArrow=classic;html=1;rounded=0;entryX=0.667;entryY=0;entryDx=0;entryDy=0;entryPerimeter=0;exitX=0.75;exitY=1;exitDx=0;exitDy=0;" edge="1" parent="1" source="Hif56-G5Tu1iFRGsb4T8-30" target="Hif56-G5Tu1iFRGsb4T8-3">
          <mxGeometry width="50" height="50" relative="1" as="geometry">
            <mxPoint x="212" y="310" as="sourcePoint" />
            <mxPoint x="210" y="388" as="targetPoint" />
          </mxGeometry>
        </mxCell>
        <mxCell id="Hif56-G5Tu1iFRGsb4T8-55" value="" style="endArrow=classic;html=1;rounded=0;exitX=0.75;exitY=1;exitDx=0;exitDy=0;" edge="1" parent="1" source="Hif56-G5Tu1iFRGsb4T8-35">
          <mxGeometry width="50" height="50" relative="1" as="geometry">
            <mxPoint x="910" y="310" as="sourcePoint" />
            <mxPoint x="915" y="380" as="targetPoint" />
            <Array as="points" />
          </mxGeometry>
        </mxCell>
        <mxCell id="Hif56-G5Tu1iFRGsb4T8-56" value="" style="endArrow=classic;html=1;rounded=0;entryX=0.42;entryY=1;entryDx=0;entryDy=0;entryPerimeter=0;" edge="1" parent="1" target="Hif56-G5Tu1iFRGsb4T8-35">
          <mxGeometry width="50" height="50" relative="1" as="geometry">
            <mxPoint x="880" y="380" as="sourcePoint" />
            <mxPoint x="882" y="330" as="targetPoint" />
          </mxGeometry>
        </mxCell>
      </root>
    </mxGraphModel>
  </diagram>
</mxfile>
